<svg width="19" height="19" viewBox="0 0 19 19" fill="none" xmlns="http://www.w3.org/2000/svg">
<g clip-path="url(#clip0_19_2)">
<path d="M6 1H3C1.89543 1 1 1.89543 1 3C1 4.10457 1.89543 5 3 5H6C7.10457 5 8 4.10457 8 3C8 1.89543 7.10457 1 6 1Z" fill="#0E1444" stroke="#0E1444" stroke-width="1.5"/>
<path d="M5.5 8H3.5C2.11929 8 1 9.11929 1 10.5V15.5C1 16.8807 2.11929 18 3.5 18H5.5C6.88071 18 8 16.8807 8 15.5V10.5C8 9.11929 6.88071 8 5.5 8Z" fill="#0E1444" stroke="#0E1444" stroke-width="1.5"/>
<path d="M15.5 1H13.5C12.1193 1 11 2.11929 11 3.5V8.5C11 9.88071 12.1193 11 13.5 11H15.5C16.8807 11 18 9.88071 18 8.5V3.5C18 2.11929 16.8807 1 15.5 1Z" fill="#0E1444" stroke="#0E1444" stroke-width="1.5"/>
<path d="M16 14H13C11.8954 14 11 14.8954 11 16C11 17.1046 11.8954 18 13 18H16C17.1046 18 18 17.1046 18 16C18 14.8954 17.1046 14 16 14Z" fill="#0E1444" stroke="#0E1444" stroke-width="1.5"/>
</g>
<defs>
<clipPath id="clip0_19_2">
<rect width="19" height="19" fill="white"/>
</clipPath>
</defs>
</svg>
